<mxfile host="app.diagrams.net" agent="Mozilla/5.0 (Windows NT 10.0; Win64; x64) AppleWebKit/537.36 (KHTML, like Gecko) Chrome/131.0.0.0 Safari/537.36 OPR/116.0.0.0" version="26.1.0">
  <diagram name="Page-1" id="jl4RpQm31j97vZ1atHXV">
    <mxGraphModel dx="1160" dy="552" grid="1" gridSize="10" guides="1" tooltips="1" connect="1" arrows="1" fold="1" page="1" pageScale="1" pageWidth="850" pageHeight="1100" math="0" shadow="0">
      <root>
        <mxCell id="0" />
        <mxCell id="1" parent="0" />
        <mxCell id="PSvjuFPHmBEkXUhq5SEm-6" style="edgeStyle=orthogonalEdgeStyle;rounded=0;orthogonalLoop=1;jettySize=auto;html=1;entryX=0;entryY=0.5;entryDx=0;entryDy=0;" edge="1" parent="1" source="PSvjuFPHmBEkXUhq5SEm-2" target="PSvjuFPHmBEkXUhq5SEm-4">
          <mxGeometry relative="1" as="geometry" />
        </mxCell>
        <mxCell id="PSvjuFPHmBEkXUhq5SEm-7" style="edgeStyle=orthogonalEdgeStyle;rounded=0;orthogonalLoop=1;jettySize=auto;html=1;entryX=0;entryY=0.5;entryDx=0;entryDy=0;exitX=1;exitY=0.5;exitDx=0;exitDy=0;" edge="1" parent="1" source="PSvjuFPHmBEkXUhq5SEm-4" target="PSvjuFPHmBEkXUhq5SEm-5">
          <mxGeometry relative="1" as="geometry" />
        </mxCell>
        <mxCell id="PSvjuFPHmBEkXUhq5SEm-8" style="edgeStyle=orthogonalEdgeStyle;rounded=0;orthogonalLoop=1;jettySize=auto;html=1;entryX=1;entryY=0.5;entryDx=0;entryDy=0;startArrow=classic;startFill=1;" edge="1" parent="1" source="PSvjuFPHmBEkXUhq5SEm-2" target="PSvjuFPHmBEkXUhq5SEm-3">
          <mxGeometry relative="1" as="geometry" />
        </mxCell>
        <mxCell id="PSvjuFPHmBEkXUhq5SEm-9" style="edgeStyle=orthogonalEdgeStyle;rounded=0;orthogonalLoop=1;jettySize=auto;html=1;" edge="1" parent="1" source="PSvjuFPHmBEkXUhq5SEm-2">
          <mxGeometry relative="1" as="geometry">
            <mxPoint x="330" y="560" as="targetPoint" />
          </mxGeometry>
        </mxCell>
        <mxCell id="PSvjuFPHmBEkXUhq5SEm-2" value="Entrance" style="rounded=1;whiteSpace=wrap;html=1;fillColor=#d5e8d4;strokeColor=#82b366;" vertex="1" parent="1">
          <mxGeometry x="270" y="450" width="120" height="60" as="geometry" />
        </mxCell>
        <mxCell id="PSvjuFPHmBEkXUhq5SEm-3" value="Jail" style="rounded=1;whiteSpace=wrap;html=1;fillColor=#d5e8d4;strokeColor=#82b366;" vertex="1" parent="1">
          <mxGeometry x="110" y="450" width="120" height="60" as="geometry" />
        </mxCell>
        <mxCell id="PSvjuFPHmBEkXUhq5SEm-4" value="Library" style="rounded=1;whiteSpace=wrap;html=1;fillColor=#d5e8d4;strokeColor=#82b366;" vertex="1" parent="1">
          <mxGeometry x="450" y="450" width="120" height="60" as="geometry" />
        </mxCell>
        <mxCell id="PSvjuFPHmBEkXUhq5SEm-5" value="Treasure Room" style="rounded=1;whiteSpace=wrap;html=1;" vertex="1" parent="1">
          <mxGeometry x="640" y="450" width="120" height="60" as="geometry" />
        </mxCell>
        <mxCell id="PSvjuFPHmBEkXUhq5SEm-10" value="?" style="text;html=1;align=center;verticalAlign=middle;whiteSpace=wrap;rounded=0;" vertex="1" parent="1">
          <mxGeometry x="300" y="580" width="60" height="30" as="geometry" />
        </mxCell>
        <mxCell id="PSvjuFPHmBEkXUhq5SEm-16" value="" style="edgeStyle=orthogonalEdgeStyle;rounded=0;orthogonalLoop=1;jettySize=auto;html=1;" edge="1" parent="1" source="PSvjuFPHmBEkXUhq5SEm-13" target="PSvjuFPHmBEkXUhq5SEm-15">
          <mxGeometry relative="1" as="geometry" />
        </mxCell>
        <mxCell id="PSvjuFPHmBEkXUhq5SEm-13" value="Director" style="rounded=1;whiteSpace=wrap;html=1;" vertex="1" parent="1">
          <mxGeometry x="80" y="250" width="120" height="60" as="geometry" />
        </mxCell>
        <mxCell id="PSvjuFPHmBEkXUhq5SEm-18" value="" style="edgeStyle=orthogonalEdgeStyle;rounded=0;orthogonalLoop=1;jettySize=auto;html=1;" edge="1" parent="1" source="PSvjuFPHmBEkXUhq5SEm-15" target="PSvjuFPHmBEkXUhq5SEm-17">
          <mxGeometry relative="1" as="geometry" />
        </mxCell>
        <mxCell id="PSvjuFPHmBEkXUhq5SEm-15" value="Manager" style="whiteSpace=wrap;html=1;rounded=1;" vertex="1" parent="1">
          <mxGeometry x="280" y="250" width="120" height="60" as="geometry" />
        </mxCell>
        <mxCell id="PSvjuFPHmBEkXUhq5SEm-17" value="&lt;span style=&quot;color: rgb(0, 0, 0); font-family: Helvetica; font-size: 12px; font-style: normal; font-variant-ligatures: normal; font-variant-caps: normal; font-weight: 400; letter-spacing: normal; orphans: 2; text-align: center; text-indent: 0px; text-transform: none; widows: 2; word-spacing: 0px; -webkit-text-stroke-width: 0px; white-space: normal; background-color: rgb(251, 251, 251); text-decoration-thickness: initial; text-decoration-style: initial; text-decoration-color: initial; float: none; display: inline !important;&quot;&gt;Analyst&lt;/span&gt;" style="whiteSpace=wrap;html=1;rounded=1;" vertex="1" parent="1">
          <mxGeometry x="480" y="250" width="120" height="60" as="geometry" />
        </mxCell>
        <mxCell id="PSvjuFPHmBEkXUhq5SEm-23" style="edgeStyle=orthogonalEdgeStyle;rounded=0;orthogonalLoop=1;jettySize=auto;html=1;entryX=0.5;entryY=1;entryDx=0;entryDy=0;" edge="1" parent="1" source="PSvjuFPHmBEkXUhq5SEm-19" target="PSvjuFPHmBEkXUhq5SEm-22">
          <mxGeometry relative="1" as="geometry" />
        </mxCell>
        <mxCell id="PSvjuFPHmBEkXUhq5SEm-19" value="Goblin" style="rounded=1;whiteSpace=wrap;html=1;" vertex="1" parent="1">
          <mxGeometry x="240" y="780" width="120" height="60" as="geometry" />
        </mxCell>
        <mxCell id="PSvjuFPHmBEkXUhq5SEm-24" style="edgeStyle=orthogonalEdgeStyle;rounded=0;orthogonalLoop=1;jettySize=auto;html=1;" edge="1" parent="1" source="PSvjuFPHmBEkXUhq5SEm-20">
          <mxGeometry relative="1" as="geometry">
            <mxPoint x="425" y="720" as="targetPoint" />
          </mxGeometry>
        </mxCell>
        <mxCell id="PSvjuFPHmBEkXUhq5SEm-20" value="Player" style="rounded=1;whiteSpace=wrap;html=1;" vertex="1" parent="1">
          <mxGeometry x="365" y="780" width="120" height="60" as="geometry" />
        </mxCell>
        <mxCell id="PSvjuFPHmBEkXUhq5SEm-25" style="edgeStyle=orthogonalEdgeStyle;rounded=0;orthogonalLoop=1;jettySize=auto;html=1;entryX=0.5;entryY=1;entryDx=0;entryDy=0;" edge="1" parent="1" source="PSvjuFPHmBEkXUhq5SEm-21" target="PSvjuFPHmBEkXUhq5SEm-22">
          <mxGeometry relative="1" as="geometry" />
        </mxCell>
        <mxCell id="PSvjuFPHmBEkXUhq5SEm-21" value="Ghost" style="rounded=1;whiteSpace=wrap;html=1;" vertex="1" parent="1">
          <mxGeometry x="490" y="780" width="120" height="60" as="geometry" />
        </mxCell>
        <mxCell id="PSvjuFPHmBEkXUhq5SEm-22" value="ICharacter" style="rounded=1;whiteSpace=wrap;html=1;" vertex="1" parent="1">
          <mxGeometry x="240" y="660" width="370" height="60" as="geometry" />
        </mxCell>
        <mxCell id="PSvjuFPHmBEkXUhq5SEm-29" style="edgeStyle=orthogonalEdgeStyle;rounded=0;orthogonalLoop=1;jettySize=auto;html=1;entryX=0;entryY=0.5;entryDx=0;entryDy=0;exitX=0;exitY=0.5;exitDx=0;exitDy=0;" edge="1" parent="1" source="PSvjuFPHmBEkXUhq5SEm-26" target="PSvjuFPHmBEkXUhq5SEm-22">
          <mxGeometry relative="1" as="geometry">
            <Array as="points">
              <mxPoint x="170" y="865" />
              <mxPoint x="170" y="690" />
            </Array>
          </mxGeometry>
        </mxCell>
        <mxCell id="PSvjuFPHmBEkXUhq5SEm-26" value="Name&lt;div&gt;Attack(ICharacter)&lt;/div&gt;" style="text;html=1;align=left;verticalAlign=middle;whiteSpace=wrap;rounded=0;" vertex="1" parent="1">
          <mxGeometry x="260" y="850" width="60" height="30" as="geometry" />
        </mxCell>
        <mxCell id="PSvjuFPHmBEkXUhq5SEm-30" style="edgeStyle=orthogonalEdgeStyle;rounded=0;orthogonalLoop=1;jettySize=auto;html=1;entryX=1;entryY=0.5;entryDx=0;entryDy=0;exitX=1;exitY=0.5;exitDx=0;exitDy=0;" edge="1" parent="1" target="PSvjuFPHmBEkXUhq5SEm-22">
          <mxGeometry relative="1" as="geometry">
            <mxPoint x="580" y="865" as="sourcePoint" />
            <Array as="points">
              <mxPoint x="680" y="865" />
              <mxPoint x="680" y="690" />
            </Array>
          </mxGeometry>
        </mxCell>
        <mxCell id="PSvjuFPHmBEkXUhq5SEm-31" value="Name&lt;div&gt;Attack(ICharacter)&lt;/div&gt;" style="text;html=1;align=left;verticalAlign=middle;whiteSpace=wrap;rounded=0;" vertex="1" parent="1">
          <mxGeometry x="510" y="850" width="60" height="30" as="geometry" />
        </mxCell>
        <mxCell id="PSvjuFPHmBEkXUhq5SEm-32" value="Name&lt;div&gt;Attack(ICharacter)&lt;/div&gt;" style="text;html=1;align=left;verticalAlign=middle;whiteSpace=wrap;rounded=0;" vertex="1" parent="1">
          <mxGeometry x="380" y="850" width="60" height="30" as="geometry" />
        </mxCell>
      </root>
    </mxGraphModel>
  </diagram>
</mxfile>
